<?xml version="1.0" standalone="no"?>
<!DOCTYPE svg PUBLIC "-//W3C//DTD SVG 20010904//EN" "http://www.w3.org/TR/2001/REC-SVG-20010904/DTD/svg10.dtd">
<svg version="1.0" xmlns="http://www.w3.org/2000/svg"
	width="2144.000000pt" height="1923.000000pt" viewBox="0 0 2144.000000 1923.000000"
	preserveAspectRatio="xMidYMid meet" >

	<g transform="translate(0.000000,1923.000000) scale(0.100000,-0.100000)"
		fill="currentColor" stroke="currentColor">
		<path d="M10315 18900 c-215 -23 -438 -79 -594 -151 l-93 -43 143 -32 c650
-145 1227 -489 1581 -944 153 -198 392 -594 559 -930 173 -347 278 -602 519
-1250 229 -617 331 -865 471 -1141 339 -671 840 -1158 1534 -1490 585 -280
1153 -406 2335 -518 1456 -139 1662 -155 1970 -155 232 0 321 3 415 17 403 60
741 183 1055 385 94 60 243 173 237 179 -2 2 -42 -6 -88 -17 -376 -91 -1013
-144 -1444 -122 -368 20 -748 60 -1099 118 -565 93 -1274 268 -1871 461 -424
138 -796 333 -1170 615 -474 357 -841 783 -1150 1335 -103 183 -152 290 -318
693 -412 997 -562 1320 -784 1695 -240 403 -577 808 -779 937 -273 173 -597
296 -904 343 -125 19 -412 27 -525 15z" />
		<path d="M10600 18100 c-46 -195 -208 -631 -334 -897 -295 -622 -763 -1303
-1375 -1998 -336 -382 -834 -885 -1036 -1046 -542 -432 -1205 -731 -1875 -843
-262 -44 -444 -58 -755 -59 -281 -1 -306 0 -800 51 -908 92 -1156 107 -1607
99 -450 -8 -744 -47 -1073 -142 -171 -50 -217 -69 -332 -138 -218 -131 -464
-341 -610 -521 -199 -248 -344 -535 -418 -830 -36 -141 -59 -297 -53 -360 l3
-39 49 64 c73 94 325 342 446 438 250 200 561 374 830 466 284 97 571 133
1110 142 503 8 775 -13 1595 -122 864 -116 1016 -130 1380 -129 334 0 511 20
785 89 389 98 707 243 1065 486 450 304 836 707 1295 1349 191 267 1256 1882
1374 2083 282 480 420 985 403 1472 -5 149 -26 340 -45 410 -8 29 -9 28 -22
-25z" />
		<path d="M9785 14519 c-27 -10 -60 -18 -72 -19 -39 0 -28 -30 11 -30 26 0 35
-5 40 -22 3 -13 6 -134 6 -270 0 -268 -2 -278 -56 -278 -15 0 -24 -6 -24 -15
0 -12 19 -15 115 -15 96 0 115 3 115 15 0 9 -9 15 -22 15 -48 0 -53 12 -56
132 -4 129 4 160 50 188 49 30 103 26 139 -9 l29 -29 0 -156 0 -156 75 0 c60
0 75 3 75 15 0 9 -9 15 -23 15 -43 0 -47 16 -47 164 0 122 -3 145 -20 173 -22
38 -43 50 -98 59 -51 8 -101 -9 -137 -46 -16 -17 -33 -30 -38 -30 -7 0 -8 59
-4 160 4 88 4 159 0 159 -5 -1 -30 -10 -58 -20z" />
		<path d="M11620 14530 c-8 -5 -39 -15 -67 -21 -60 -14 -71 -36 -20 -41 l32 -3
3 -297 c1 -164 6 -298 10 -298 4 0 13 5 19 11 8 8 24 6 57 -5 87 -30 134 -18
225 54 65 51 94 111 94 190 0 161 -162 236 -279 128 l-44 -41 0 167 c0 91 -3
166 -7 166 -5 0 -15 -5 -23 -10z m216 -309 c63 -39 81 -156 38 -247 -34 -71
-120 -95 -185 -51 l-34 23 -3 107 c-3 119 3 138 51 167 41 25 93 25 133 1z" />
		<path d="M9214 14475 c-15 -23 -15 -27 0 -50 28 -43 86 -26 86 25 0 51 -58 68
-86 25z" />
		<path d="M9503 14423 c-31 -16 -32 -19 -35 -87 -3 -70 -3 -70 -35 -80 -43 -12
-42 -26 2 -26 l35 0 0 -150 c0 -91 4 -159 11 -174 24 -52 132 -59 163 -11 22
34 21 48 -3 35 -29 -15 -56 -12 -74 8 -14 15 -17 42 -17 155 l0 137 60 0 c53
0 60 2 60 20 0 18 -7 20 -60 20 l-60 0 0 85 c0 47 -3 85 -7 84 -5 0 -22 -7
-40 -16z" />
		<path d="M9213 14276 c-77 -22 -97 -46 -39 -46 22 0 36 -6 40 -16 10 -26 7
-261 -4 -288 -7 -20 -16 -26 -40 -26 -20 0 -30 -5 -30 -15 0 -12 19 -15 115
-15 96 0 115 3 115 15 0 9 -9 15 -22 15 -52 1 -53 5 -52 210 1 104 -1 189 -5
189 -3 -1 -39 -11 -78 -23z" />
		<path d="M10400 14294 c-8 -3 -36 -15 -62 -26 -43 -19 -48 -25 -48 -54 0 -44
15 -51 30 -13 23 55 84 75 145 47 51 -23 74 -103 33 -113 -13 -2 -54 -12 -93
-20 -81 -18 -109 -34 -135 -78 -43 -70 -9 -159 66 -173 48 -9 74 0 132 47 l52
41 0 -41 0 -41 70 0 c54 0 70 3 70 14 0 9 -12 16 -27 18 l-28 3 -7 154 c-8
162 -15 185 -62 216 -25 16 -110 28 -136 19z m120 -240 c0 -66 -9 -86 -54
-113 -67 -42 -136 -16 -136 52 0 18 6 41 13 51 12 17 134 65 165 66 8 0 12
-18 12 -56z" />
		<path d="M10773 14275 c-75 -21 -98 -45 -43 -45 24 0 33 -6 40 -26 11 -28 12
-185 2 -254 -7 -42 -9 -45 -39 -48 -21 -2 -33 -9 -33 -18 0 -11 22 -14 115
-14 96 0 115 3 115 15 0 10 -10 15 -28 15 -47 0 -52 14 -52 148 l0 124 34 34
c58 58 145 40 166 -35 11 -39 12 -187 1 -236 -5 -25 -12 -31 -39 -33 -20 -2
-32 -9 -32 -18 0 -11 22 -14 115 -14 96 0 115 3 115 15 0 9 -9 15 -23 15 -13
0 -31 6 -41 13 -16 12 -18 27 -15 141 l4 128 33 29 c42 38 102 40 136 6 30
-30 41 -127 31 -257 l-7 -90 81 0 c65 0 81 3 81 15 0 10 -10 15 -30 15 -19 0
-33 7 -40 19 -5 11 -10 82 -10 160 0 135 -1 140 -25 170 -54 63 -149 65 -217
3 l-40 -36 -24 31 c-51 66 -139 68 -207 6 l-42 -38 -5 40 -5 40 -72 -20z" />
		<path d="M12180 14294 c-8 -3 -36 -15 -62 -26 -43 -19 -48 -25 -48 -54 0 -44
15 -51 30 -13 23 55 84 75 145 47 51 -23 74 -103 33 -113 -13 -2 -54 -12 -93
-20 -81 -18 -109 -34 -135 -78 -43 -70 -9 -159 66 -173 48 -9 74 0 132 47 l52
41 0 -41 0 -41 70 0 c54 0 70 3 70 14 0 9 -12 16 -27 18 l-28 3 -7 154 c-8
162 -15 185 -62 216 -25 16 -110 28 -136 19z m120 -240 c0 -66 -9 -86 -54
-113 -67 -42 -136 -16 -136 52 0 18 6 41 13 51 12 17 134 65 165 66 8 0 12
-18 12 -56z" />
		<path d="M12600 14290 c-8 -5 -39 -15 -67 -21 -59 -13 -73 -39 -23 -39 42 0
50 -27 49 -163 -1 -145 -6 -161 -47 -165 -20 -2 -32 -9 -32 -18 0 -11 22 -14
120 -14 98 0 120 3 120 14 0 10 -13 16 -37 18 -45 4 -51 18 -52 128 -1 94 12
150 40 173 28 23 72 22 94 -3 27 -30 33 -25 37 35 2 46 0 56 -15 61 -36 11
-77 -8 -117 -54 l-40 -47 0 53 c0 53 -4 59 -30 42z" />
		<path d="M11440 13711 c-64 -20 -131 -74 -159 -128 l-12 -23 -343 0 -344 0
-148 -78 c-82 -44 -216 -114 -299 -157 -82 -43 -226 -118 -319 -167 l-169 -88
-128 0 c-83 0 -129 4 -129 10 0 6 -21 33 -46 60 -144 153 -406 101 -471 -95
-36 -110 -8 -230 71 -303 61 -56 118 -75 213 -71 66 3 86 9 128 35 29 18 62
49 80 77 l30 46 159 0 159 1 166 86 c91 48 302 158 468 245 l302 159 310 0
311 0 24 -39 c66 -104 230 -153 342 -102 61 28 124 89 150 146 67 143 -9 330
-155 380 -46 16 -148 19 -191 6z" />
		<path d="M12585 13548 c-50 -18 -108 -61 -140 -105 l-30 -42 -136 0 c-165 -1
-191 -6 -229 -41 l-30 -28 0 -1082 0 -1082 34 -34 34 -34 671 0 671 0 0 -910
0 -910 -82 1 -83 0 -30 47 c-66 103 -227 144 -343 86 -68 -34 -109 -76 -140
-142 -20 -45 -24 -65 -21 -130 4 -68 8 -84 38 -131 60 -94 138 -134 254 -132
95 1 193 57 233 134 l15 27 165 0 166 0 34 34 34 34 0 1074 c-1 853 -3 1078
-14 1096 -7 13 -26 32 -42 43 -28 18 -53 19 -691 19 l-663 0 0 910 0 910 80 0
c48 0 80 -4 80 -10 0 -22 88 -104 135 -126 60 -29 158 -32 227 -9 53 19 119
79 150 138 32 62 31 184 0 249 -30 60 -99 122 -159 142 -52 18 -143 20 -188 4z" />
		<path d="M8468 13185 c-63 -21 -151 -102 -174 -161 -10 -25 -18 -71 -18 -101
l-1 -55 -285 -202 c-487 -346 -863 -611 -915 -647 l-50 -35 -45 17 c-95 38
-206 17 -285 -53 -72 -63 -90 -106 -90 -213 0 -101 17 -145 77 -201 57 -55
114 -78 193 -78 158 -1 272 102 283 255 4 58 9 73 28 87 12 9 76 54 141 100
65 46 242 171 393 278 151 107 298 210 325 230 28 19 122 86 209 148 l160 113
50 -20 c95 -36 229 -5 297 70 60 65 74 102 74 193 0 76 -3 91 -30 138 -32 59
-67 92 -129 124 -52 27 -146 33 -208 13z" />
		<path d="M11540 13059 c-64 -13 -130 -57 -165 -111 l-30 -47 -492 0 -492 -1
-35 -34 -36 -33 0 -207 0 -206 -410 0 -409 0 -15 29 c-17 33 -73 83 -119 108
-23 13 -56 17 -122 18 -107 0 -149 -18 -213 -90 -122 -138 -84 -349 77 -432
54 -28 73 -33 134 -33 82 0 132 19 191 70 20 18 44 46 52 61 l15 29 485 0
c532 0 528 0 559 60 12 23 15 69 15 225 l0 195 408 -1 407 0 38 -49 c122 -161
381 -137 472 45 54 109 33 246 -50 330 -63 63 -171 93 -265 74z" />
		<path d="M13134 13031 c-103 -52 -154 -137 -154 -257 0 -161 117 -276 280
-275 104 0 185 42 236 122 l24 39 108 0 108 0 104 -132 c58 -73 148 -187 201
-253 127 -160 391 -492 504 -635 50 -63 162 -204 248 -312 l157 -198 0 -115 0
-114 -27 -15 c-80 -42 -136 -143 -136 -246 0 -159 108 -270 270 -278 60 -4 80
0 125 20 106 49 159 128 166 248 4 70 2 79 -30 140 -25 49 -45 72 -80 95 l-47
30 0 148 c-1 101 -5 158 -15 180 -7 18 -49 78 -93 132 -174 220 -483 609 -702
885 -505 638 -499 630 -537 646 -23 10 -78 14 -181 14 l-148 1 -27 42 c-16 26
-49 55 -83 76 -48 29 -68 35 -133 39 -70 3 -82 1 -138 -27z" />
		<path d="M20637 12823 c-27 -724 -307 -1394 -768 -1838 -337 -323 -653 -578
-1034 -834 -204 -138 -327 -214 -715 -446 -886 -530 -1155 -718 -1460 -1024
-259 -260 -429 -496 -593 -827 -193 -386 -316 -838 -369 -1354 -9 -83 -13
-274 -13 -565 1 -485 4 -544 81 -1375 24 -267 64 -705 89 -975 59 -640 92
-841 187 -1135 97 -299 238 -565 429 -805 105 -133 377 -403 357 -355 -259
625 -384 1119 -452 1795 -35 349 -41 485 -41 1005 0 615 16 886 85 1512 51
458 121 752 267 1123 271 687 714 1274 1338 1771 138 110 136 109 720 488 672
438 917 610 1220 857 175 142 513 478 629 624 99 125 212 288 246 355 60 119
141 392 177 595 25 144 25 540 -1 680 -56 313 -157 579 -302 797 -36 54 -66
98 -68 98 -2 0 -6 -75 -9 -167z" />
		<path d="M8417 12559 c-87 -14 -155 -66 -203 -159 -25 -48 -26 -191 -1 -237
29 -55 78 -103 131 -131 44 -23 63 -27 137 -27 l86 0 197 -230 c109 -126 209
-238 224 -247 21 -14 49 -18 124 -18 97 0 98 0 112 -29 20 -37 80 -89 130
-112 60 -27 172 -26 233 3 169 79 216 309 90 445 -54 58 -107 84 -184 91 -110
9 -203 -34 -259 -118 -25 -37 -30 -40 -73 -40 -56 0 -52 -4 -270 253 -134 159
-150 182 -144 205 25 97 -6 210 -76 276 -75 69 -151 92 -254 75z" />
		<path d="M10779 12477 c-151 -43 -232 -203 -184 -363 46 -154 244 -236 391
-161 29 14 71 49 95 76 l44 50 152 2 152 2 40 -51 c106 -134 310 -144 428 -20
79 82 99 215 48 321 -89 189 -363 210 -483 37 l-27 -39 -156 -1 -156 0 -27 38
c-67 97 -198 142 -317 109z" />
		<path d="M12625 12166 c-210 -97 -216 -397 -11 -504 71 -37 189 -38 256 -4 53
28 86 56 111 96 l18 29 268 -2 c236 -2 269 -4 278 -18 25 -40 82 -96 124 -121
39 -23 56 -26 131 -26 95 0 125 11 192 72 59 54 88 121 88 207 0 82 -20 133
-74 193 -76 83 -214 110 -323 63 -49 -22 -133 -98 -133 -121 0 -12 -191 -13
-406 -3 l-141 6 -24 39 c-24 39 -78 82 -132 106 -49 21 -165 15 -222 -12z" />
		<path d="M7667 12056 c-137 -49 -215 -205 -173 -348 34 -119 143 -198 271
-198 90 0 155 29 213 95 23 26 42 52 42 56 0 5 74 9 165 9 l165 0 0 -455 0
-455 -265 0 c-174 0 -265 4 -265 10 0 22 -87 104 -130 123 -66 29 -169 28
-237 -2 -60 -26 -116 -83 -144 -145 -25 -55 -25 -166 0 -222 81 -179 305 -228
449 -99 28 25 54 55 57 65 6 19 16 20 198 19 106 -1 183 -3 172 -6 -71 -16
-115 -38 -157 -78 -25 -24 -49 -53 -53 -65 -6 -20 -12 -20 -439 -20 -238 0
-488 3 -554 7 -133 7 -148 15 -89 51 84 53 129 136 129 242 0 166 -116 280
-285 280 -241 0 -366 -294 -200 -471 25 -27 54 -51 64 -54 17 -6 19 -17 19
-101 0 -63 5 -104 14 -123 17 -31 56 -61 83 -62 21 -1 17 -2 -61 -24 -112 -31
-196 -144 -196 -264 0 -114 52 -202 151 -255 68 -38 181 -41 247 -7 52 26 119
85 127 112 6 18 33 19 973 21 931 3 968 4 995 22 56 38 57 47 57 391 l0 315
640 0 c419 0 640 -3 640 -10 0 -21 76 -93 124 -117 67 -34 169 -37 236 -7 107
49 161 128 168 246 4 69 2 84 -22 132 -67 136 -218 199 -355 147 -61 -23 -115
-63 -142 -107 l-21 -34 -691 0 c-441 0 -705 -4 -729 -10 -20 -6 -48 -24 -62
-41 l-26 -31 0 -324 0 -324 -242 1 c-197 0 -237 3 -213 12 115 45 182 131 192
246 13 140 -71 258 -207 295 l-55 15 120 1 c141 1 181 13 212 59 l23 34 0 606
c0 590 -1 607 -20 639 -35 57 -62 62 -323 62 l-234 0 -24 37 c-30 47 -98 99
-147 113 -51 14 -139 12 -185 -4z m333 -2003 c24 -33 55 -58 98 -80 l64 -33
-581 0 -581 0 -26 39 c-31 47 -87 88 -146 106 -37 12 36 14 547 14 l590 1 35
-47z" />
		<path d="M10008 11927 c-127 -36 -210 -166 -194 -304 17 -145 129 -246 271
-247 100 0 141 18 212 90 l63 64 605 0 605 0 0 -469 c0 -465 0 -468 22 -496
38 -49 70 -55 276 -55 l188 0 37 -48 c54 -72 130 -107 227 -107 58 0 85 6 117
23 112 59 158 133 157 257 0 66 -4 88 -26 130 -52 100 -136 150 -254 149 -94
0 -173 -37 -224 -107 l-35 -47 -122 0 -123 0 0 469 0 469 -26 31 c-14 17 -42
35 -62 41 -24 6 -280 10 -703 10 l-666 0 -27 38 c-67 98 -198 142 -318 109z" />
		<path d="M1105 11773 c394 -177 823 -429 1153 -677 714 -539 1559 -1435 2211
-2344 347 -485 597 -1113 690 -1732 62 -413 58 -876 -10 -1326 -19 -125 -42
-227 -229 -1009 -132 -551 -216 -998 -256 -1355 -22 -195 -29 -597 -15 -771
17 -197 55 -416 87 -497 179 -454 481 -831 869 -1085 116 -76 344 -187 465
-228 82 -27 270 -72 276 -66 1 1 -34 43 -77 92 -296 334 -530 749 -644 1141
-95 327 -112 595 -70 1089 48 550 130 954 374 1830 178 640 228 838 281 1120
145 765 54 1438 -287 2120 -280 558 -666 1025 -1388 1675 -277 250 -1470 1293
-1599 1399 -277 226 -608 415 -906 516 -285 97 -453 126 -760 131 l-225 4 60
-27z" />
		<path d="M14093 11491 c-41 -11 -112 -53 -140 -83 -64 -68 -86 -205 -50 -300
17 -44 114 -148 138 -148 5 0 9 -162 9 -395 l0 -395 73 -76 c82 -86 100 -112
71 -99 -136 56 -295 -1 -362 -129 -22 -43 -26 -64 -26 -131 0 -122 45 -199
148 -253 43 -22 64 -27 131 -27 70 0 87 4 134 30 32 18 69 49 90 77 l35 48
143 0 c204 0 253 25 253 128 0 49 2 47 -247 315 l-203 217 0 345 0 345 38 25
c41 27 68 59 97 115 28 54 27 181 -3 242 -26 53 -88 113 -139 134 -42 18 -147
26 -190 15z" />
		<path d="M7905 11406 c-80 -25 -133 -66 -171 -132 -11 -18 -33 -19 -573 -22
-404 -2 -561 0 -561 8 0 27 -94 110 -146 130 -147 55 -313 -12 -371 -148 -25
-58 -22 -177 6 -234 26 -55 86 -112 145 -139 61 -28 167 -26 231 5 47 22 135
104 135 126 0 7 187 10 565 10 l564 0 15 -27 c34 -65 125 -121 211 -130 112
-12 228 54 282 160 36 73 36 175 -2 252 -57 118 -204 181 -330 141z" />
		<path d="M10295 11406 c-80 -25 -133 -66 -171 -132 -11 -18 -31 -19 -458 -22
-312 -2 -446 0 -446 8 0 19 -83 101 -125 122 -61 32 -165 35 -237 9 -63 -24
-129 -88 -155 -149 -19 -45 -21 -152 -5 -208 16 -56 81 -127 144 -158 71 -35
171 -36 243 -2 47 22 135 104 135 126 0 7 150 10 450 10 l449 0 15 -29 c9 -16
30 -41 47 -55 118 -100 268 -99 378 0 60 54 74 78 90 153 22 104 -20 221 -101
280 -76 56 -170 73 -253 47z" />
		<path d="M11040 11241 c-131 -40 -210 -143 -210 -276 0 -80 19 -131 70 -189
18 -20 46 -44 61 -52 l29 -15 0 -847 0 -847 -47 -35 c-26 -20 -59 -58 -76 -89
-26 -46 -31 -65 -31 -130 -1 -100 34 -175 107 -228 199 -146 476 4 454 247 -8
89 -63 181 -128 215 l-26 14 -8 848 c-6 686 -5 848 6 852 30 10 104 90 125
136 33 70 33 170 0 240 -55 119 -207 192 -326 156z" />
		<path d="M5890 10899 c-59 -26 -106 -72 -138 -134 -21 -41 -25 -64 -25 -125 0
-108 43 -186 136 -245 l28 -18 -7 -106 c-4 -58 -11 -108 -17 -110 -29 -11
-102 -91 -120 -131 -30 -69 -28 -180 6 -246 50 -99 142 -154 255 -154 87 0
153 30 210 95 77 88 94 224 39 318 -26 44 -99 117 -117 117 -6 0 -10 45 -10
114 0 105 2 115 20 121 34 11 108 103 126 157 20 61 15 157 -10 207 -29 54
-88 113 -141 137 -66 31 -170 33 -235 3z" />
		<path d="M12920 10911 c-73 -22 -132 -75 -170 -151 -33 -66 -32 -177 3 -245
26 -51 60 -89 110 -120 27 -17 27 -19 27 -121 0 -103 0 -104 -27 -118 -39 -20
-87 -73 -113 -126 -33 -66 -32 -177 3 -246 50 -99 142 -154 255 -154 208 0
339 210 253 404 -20 46 -81 111 -113 122 -16 5 -18 20 -18 119 0 103 2 114 19
120 10 3 39 27 64 54 100 107 102 272 4 378 -58 64 -125 93 -207 92 -36 0 -76
-4 -90 -8z" />
		<path d="M9319 10254 c-50 -9 -133 -68 -166 -117 -42 -62 -57 -118 -50 -188 9
-100 65 -182 155 -226 126 -62 292 -19 363 95 l21 32 469 0 469 0 0 -455 0
-455 -693 0 -692 0 -20 36 c-76 141 -311 168 -433 51 -57 -54 -83 -118 -84
-202 0 -122 51 -207 157 -256 70 -34 145 -38 218 -13 50 17 124 77 146 118
l14 26 764 0 c821 0 810 -1 847 51 14 21 16 87 16 645 l0 622 -26 31 c-14 17
-42 35 -62 41 -23 6 -235 10 -562 10 l-525 0 -35 47 c-48 64 -120 102 -201
107 -35 2 -76 2 -90 0z" />
		<path d="M11533 10251 c-49 -13 -120 -58 -146 -94 -50 -67 -61 -98 -62 -182 0
-75 3 -85 35 -139 19 -32 54 -72 77 -88 l42 -31 3 -671 c3 -631 4 -674 21
-700 38 -57 24 -56 786 -56 l699 0 64 -64 c53 -53 75 -67 123 -81 73 -22 145
-15 211 18 102 52 154 137 154 252 0 116 -51 199 -155 253 -65 34 -176 36
-245 5 -41 -18 -122 -93 -131 -121 -3 -9 -171 -14 -641 -19 l-638 -6 0 594 0
595 51 38 c132 98 142 326 18 430 -72 61 -182 88 -266 67z" />
		<path d="M15431 10218 c-30 -5 -69 -17 -86 -28 -37 -23 -115 -104 -115 -120 0
-6 -24 -10 -55 -10 -31 0 -69 -7 -86 -16 -60 -31 -59 -13 -59 -814 0 -478 -3
-730 -10 -730 -21 0 -93 -76 -118 -124 -34 -66 -36 -177 -5 -246 47 -104 159
-167 282 -158 82 6 136 33 190 94 76 87 92 225 37 319 -23 38 -90 107 -113
116 -6 3 -12 231 -17 627 l-6 622 44 -34 c84 -64 223 -73 313 -20 54 32 120
113 130 162 12 55 9 142 -6 186 -17 49 -83 121 -134 148 -52 26 -120 36 -186
26z" />
		<path d="M12172 9981 c-57 -20 -131 -83 -160 -136 -12 -22 -16 -56 -17 -126 0
-89 2 -99 30 -145 17 -27 52 -65 78 -84 l47 -35 0 -107 c0 -70 -4 -108 -11
-108 -5 0 -35 -23 -65 -52 -43 -40 -58 -63 -70 -106 -58 -197 68 -374 266
-375 108 -1 192 47 248 143 24 40 27 55 27 140 -1 68 -5 104 -17 125 -18 34
-111 125 -128 125 -6 0 -10 40 -10 108 l0 107 47 35 c26 19 61 57 78 84 28 46
30 56 30 145 -1 112 -10 135 -83 203 -80 75 -183 96 -290 59z" />
		<path d="M10047 9606 c-55 -15 -109 -55 -152 -113 l-30 -40 -1789 -8 -1790 -7
-20 28 c-106 149 -307 177 -433 61 -57 -52 -82 -101 -89 -176 -13 -122 41
-228 146 -285 45 -24 64 -29 129 -29 62 0 85 4 127 26 48 24 116 88 126 118 4
11 296 15 1799 22 1694 8 1795 7 1804 -9 24 -41 67 -82 117 -110 46 -25 63
-29 133 -29 128 1 207 52 261 169 60 132 3 293 -128 359 -65 32 -146 42 -211
23z" />
		<path d="M15772 9409 c-65 -32 -111 -81 -139 -146 -21 -49 -21 -166 0 -214 19
-45 81 -115 119 -135 l28 -15 0 -345 0 -346 -72 -105 c-40 -57 -93 -133 -118
-168 -25 -35 -65 -94 -90 -130 -25 -36 -64 -93 -88 -125 l-42 -60 -105 0
c-104 0 -105 0 -119 28 -22 42 -76 89 -131 113 -111 50 -255 17 -329 -74 -54
-68 -60 -85 -60 -182 -1 -92 11 -130 53 -179 14 -18 13 -17 -14 1 -110 76
-306 199 -335 209 -22 8 -88 13 -181 14 l-146 0 -14 26 c-7 15 -34 44 -58 65
-121 107 -321 82 -413 -49 l-16 -24 -39 43 c-21 23 -60 53 -88 65 -123 58
-302 8 -361 -101 l-19 -35 -161 0 c-148 0 -163 -2 -188 -21 -57 -44 -56 -39
-56 -527 0 -298 4 -460 11 -480 6 -17 26 -41 44 -52 30 -18 49 -20 239 -20
l206 0 0 -310 0 -310 -80 0 c-44 0 -80 4 -80 8 0 21 -77 95 -124 119 -43 23
-64 27 -131 27 -67 0 -88 -4 -130 -26 -97 -51 -148 -135 -149 -248 -1 -89 23
-147 85 -205 65 -61 108 -78 194 -79 91 -1 171 37 222 104 l35 45 156 5 c135
4 162 8 192 26 l35 21 -3 -72 c-5 -96 10 -143 63 -203 59 -65 128 -96 215 -96
102 0 204 57 246 137 l15 27 162 0 162 0 159 113 c88 61 169 125 180 140 19
26 21 45 25 193 1 90 7 164 12 164 23 0 99 85 119 133 46 105 20 250 -57 317
-65 58 -110 74 -203 75 -75 0 -90 -3 -132 -27 -137 -81 -186 -239 -117 -377
22 -44 45 -73 80 -99 l50 -37 -3 -109 -3 -110 -95 -68 -95 -67 -127 -1 c-117
0 -127 1 -133 20 -11 35 -104 109 -158 125 -113 34 -204 10 -287 -74 l-55 -56
3 446 c3 495 2 507 -57 546 -33 22 -42 23 -237 23 l-204 0 0 310 0 310 80 0
c44 0 80 -4 80 -9 0 -22 86 -103 135 -127 107 -52 256 -20 333 72 l34 41 39
-42 c79 -86 217 -114 324 -66 58 26 88 51 121 104 l24 37 117 0 c113 0 118 -1
165 -31 47 -30 61 -52 20 -30 -34 18 -155 13 -205 -8 -53 -23 -112 -73 -133
-112 l-15 -29 -160 0 c-122 0 -167 -4 -189 -15 -60 -31 -60 -33 -60 -345 l0
-286 -48 -35 c-89 -67 -130 -190 -102 -307 28 -117 142 -202 271 -202 86 0
145 25 203 85 62 63 80 115 74 214 -6 97 -37 156 -111 211 l-47 35 0 202 0
203 83 0 82 0 35 -47 c51 -70 140 -113 229 -113 150 0 265 103 278 250 8 81
-12 152 -58 210 l-39 49 65 -42 c156 -101 210 -136 299 -192 l95 -60 1 -111 0
-111 -37 -24 c-108 -70 -150 -220 -97 -349 21 -50 89 -115 146 -140 60 -26
149 -28 216 -6 57 19 123 79 154 139 27 52 30 181 6 238 -19 45 -73 106 -108
124 l-28 14 -3 164 c-3 131 -7 168 -21 188 -9 14 -72 61 -140 105 l-124 79 81
0 c70 0 87 4 134 30 30 16 69 50 88 75 l35 45 158 5 c140 4 162 7 187 26 27
20 364 495 480 678 l33 51 0 380 0 380 47 35 c29 22 59 58 80 95 28 51 33 70
33 127 0 216 -217 353 -408 257z m-1382 -2195 c0 -2 -9 0 -20 6 -11 6 -20 13
-20 16 0 2 9 0 20 -6 11 -6 20 -13 20 -16z" />
		<path d="M14441 9387 c-38 -12 -137 -98 -146 -128 -6 -18 -17 -19 -176 -19
l-169 0 -38 -34 -37 -35 3 -290 4 -290 -29 -14 c-39 -21 -87 -74 -114 -127
-33 -66 -32 -177 3 -245 33 -64 69 -97 138 -129 103 -48 221 -29 309 50 114
102 120 281 14 395 -25 26 -54 51 -64 54 -18 6 -19 19 -19 216 l0 209 83 0
c80 0 84 -1 98 -26 23 -44 99 -103 152 -119 196 -58 371 69 371 270 0 160
-118 276 -279 274 -38 -1 -85 -6 -104 -12z" />
		<path d="M6565 8986 c-63 -30 -107 -71 -136 -127 -20 -36 -24 -59 -24 -129 0
-98 17 -140 82 -202 128 -123 343 -99 434 49 l21 33 609 0 609 0 0 -164 c0
-185 7 -206 78 -226 24 -6 279 -10 710 -10 369 0 672 -4 672 -8 0 -21 77 -95
124 -120 42 -22 65 -26 127 -27 64 0 84 4 134 30 123 63 177 199 136 344 -16
55 -86 132 -149 162 -64 30 -169 31 -233 2 -57 -26 -113 -74 -129 -113 l-12
-30 -609 0 -608 0 -3 166 -3 166 -37 34 -38 34 -690 0 c-689 0 -689 0 -700 21
-65 121 -238 175 -365 115z" />
		<path d="M10484 8609 c-139 -18 -245 -154 -231 -299 8 -89 63 -181 130 -216
25 -13 27 -19 27 -73 l0 -58 -277 -6 c-414 -10 -1643 -8 -1643 2 0 5 -20 32
-45 59 -107 119 -307 121 -417 5 -64 -67 -89 -188 -59 -291 16 -57 82 -129
146 -158 73 -35 177 -33 251 3 48 23 124 100 124 124 0 5 467 10 1038 11 1123
3 1071 1 1109 57 15 21 19 53 21 169 l4 142 28 15 c34 17 74 64 102 119 32 60
31 174 -1 239 -57 117 -168 173 -307 156z" />
		<path d="M14465 8598 c-53 -27 -112 -83 -138 -133 -18 -33 -22 -57 -22 -137
l0 -98 -95 -95 -95 -95 -1377 0 c-950 0 -1378 3 -1378 10 0 24 -94 110 -138
127 -72 28 -174 23 -238 -10 -100 -51 -154 -139 -154 -252 0 -118 57 -205 165
-257 33 -15 52 -28 42 -28 -44 0 -140 -73 -173 -133 -8 -14 -97 -17 -774 -26
-616 -9 -766 -9 -769 1 -2 7 -27 36 -55 64 -140 137 -365 103 -453 -70 -21
-41 -26 -65 -26 -126 -1 -88 15 -129 70 -190 80 -89 219 -117 328 -66 44 20
125 94 136 123 3 7 254 14 769 22 711 10 766 10 775 -5 24 -41 71 -87 114
-112 41 -24 56 -27 136 -27 98 1 126 10 191 67 60 52 88 120 89 209 0 65 -4
83 -31 134 -33 63 -102 121 -157 132 -29 6 -29 6 18 29 51 24 121 87 131 116
5 17 66 18 1402 18 983 0 1409 3 1436 11 31 8 70 41 169 137 l128 126 72 -2
c156 -7 267 79 296 225 26 135 -46 262 -182 321 -46 20 -166 14 -212 -10z" />
		<path d="M12127 7366 c-99 -36 -155 -98 -182 -202 -30 -119 26 -257 128 -310
27 -14 27 -15 27 -122 l0 -107 -36 -20 c-144 -77 -171 -308 -51 -433 54 -57
120 -84 202 -84 119 0 203 50 254 154 65 128 27 276 -90 357 l-38 26 -1 105 0
105 47 35 c33 24 58 55 81 100 32 61 34 70 30 141 -5 88 -31 142 -97 202 -67
60 -188 83 -274 53z" />
		<path d="M10353 7194 c-66 -24 -138 -95 -162 -160 -73 -193 55 -386 257 -387
104 -1 206 55 248 136 14 26 18 27 93 27 l78 0 43 -92 c24 -51 88 -190 143
-308 54 -118 140 -303 189 -410 50 -107 115 -249 145 -315 30 -66 81 -177 115
-247 l60 -128 -21 -26 c-35 -44 -54 -128 -46 -197 16 -148 129 -246 280 -247
90 0 155 29 213 95 48 55 66 106 66 186 l0 56 43 -94 42 -95 -31 -54 c-62
-111 -47 -244 39 -335 62 -66 115 -89 205 -89 83 0 133 19 192 70 122 107 119
318 -6 424 -39 34 -112 66 -149 66 -20 0 -18 -4 -146 290 -47 107 -118 269
-158 360 -123 280 -244 557 -319 730 l-72 165 33 63 c28 54 33 74 33 132 0 98
-43 179 -124 235 -58 40 -58 40 -156 40 l-98 0 -58 -40 c-36 -24 -70 -59 -89
-89 -26 -42 -30 -61 -33 -131 -4 -74 -1 -88 24 -140 35 -70 101 -126 170 -144
27 -7 54 -14 60 -16 11 -3 23 -29 189 -410 143 -328 264 -603 315 -718 l49
-108 -41 36 c-46 43 -111 74 -150 75 -32 0 -32 -1 -148 253 -43 95 -122 267
-175 382 -137 297 -199 430 -308 670 -166 362 -143 338 -337 345 l-138 5 -36
47 c-68 89 -216 131 -323 92z" />
		<path d="M11150 4253 c-610 -41 -1134 -174 -2080 -526 -590 -219 -1686 -639
-1800 -689 -513 -227 -903 -543 -1184 -961 -101 -149 -222 -381 -184 -351 682
534 1357 864 2388 1168 563 166 1237 308 1910 403 159 22 705 25 875 5 713
-86 1281 -291 1873 -678 210 -138 343 -241 568 -441 111 -98 314 -277 450
-398 682 -605 1103 -920 1526 -1139 309 -161 574 -257 762 -276 170 -18 478
-8 634 20 417 73 791 256 1097 534 71 65 195 204 195 219 0 3 -33 -3 -72 -14
-417 -107 -886 -127 -1282 -54 -392 73 -630 179 -1116 500 -441 291 -741 541
-1395 1165 -550 525 -728 683 -982 872 -518 386 -1072 591 -1728 638 -129 9
-347 11 -455 3z" />
	</g>
</svg>
